<svg width="313" height="63" viewBox="0 0 313 63" fill="none" xmlns="http://www.w3.org/2000/svg">
<g clip-path="url(#clip0_157_5858)">
<path d="M202.241 24.8803C205.818 22.487 208.591 19.398 209.589 15.6132C212.474 4.56513 201.908 0.947266 189.705 0.947266H169.569L159.668 39.574H174.089L175.671 33.396H183.27C191.452 33.396 193.975 35.0935 192.977 38.7948C192.09 42.4961 188.872 43.4144 180.69 43.4144H172.149C159.641 43.4144 157.726 43.4144 154.676 54.9914H177.668C191.813 54.9914 204.154 51.3735 207.427 38.7669C209.174 31.8933 206.927 27.4963 202.213 24.8803H202.241ZM194.78 17.1439C193.782 20.8451 190.592 21.7634 184.324 21.7634H178.638L181.079 12.4964H186.653C192.893 12.4964 195.667 13.4147 194.78 17.116V17.1439Z" fill="white"/>
<path d="M208.672 54.9914H247.14L250.163 43.3866H226.033L234.076 12.5242H258.039L261.063 0.947266H222.594L208.672 54.9914Z" fill="white"/>
<path d="M233.965 31.4196H251.272L254.322 19.8428H251.438C238.93 19.8428 237.017 19.8428 233.965 31.4196Z" fill="white"/>
<path d="M275.733 12.4949H278.701L267.718 54.9621H282.14L293.122 12.4949H310.346L313.396 0.917969H264.334C261.284 12.4949 263.225 12.4949 275.733 12.4949Z" fill="white"/>
<path d="M12.6758 12.4949H15.6433L4.66064 54.9621H19.0824L30.0652 12.4949H47.2882L50.339 0.917969H1.24932C-1.77382 12.4949 0.16767 12.4949 12.6758 12.4949Z" fill="url(#paint0_linear_157_5858)"/>
<path d="M139.23 0.917969H116.238C113.187 12.4949 115.128 12.4949 127.636 12.4949H136.179C144.36 12.4949 147.106 13.4132 145.747 18.673C144.611 23.1533 141.172 24.851 132.989 24.851H125.39L127.582 16.3631H113.159L103.258 54.9619H117.68L122.45 36.4278H130.049C144.194 36.4278 156.786 32.0308 160.169 18.673C163.913 4.53571 153.347 0.917969 139.202 0.917969H139.23Z" fill="url(#paint1_linear_157_5858)"/>
<path d="M76.0208 0.0277092C67.0623 0.0277092 59.0747 4.17436 53.8607 10.6306C47.7591 27.9403 65.1486 55.658 83.3972 56.2425C95.5725 52.9864 104.532 41.8549 104.532 28.6082C104.532 12.8013 91.773 0 76.0208 0V0.0277092ZM98.9291 19.1184C97.736 19.7864 90.2762 22.5693 90.1092 23.2928L91.4959 36.456C88.6669 33.1722 86.1984 29.5265 82.6494 26.9385L69.8357 33.84L75.5768 20.9831L64.899 13.5527L79.3206 13.8032L82.8152 4.87C84.6738 8.12607 86.559 11.382 87.8077 14.9441C91.7452 15.779 95.4902 17.2261 99.2897 18.4785C99.3998 19.1463 99.2619 18.9515 98.9291 19.1184Z" fill="url(#paint2_linear_157_5858)"/>
<path d="M79.8494 56.2434C79.0726 56.1042 78.3236 55.9373 77.5746 55.7424C69.2267 53.6274 52.087 46.2248 48.5924 21.0117C47.9268 23.4329 47.5385 25.9932 47.5385 28.637C47.5385 29.3327 47.594 30.0005 47.6494 30.6685L47.5663 30.4458C46.5678 37.7093 40.4662 46.9484 28.069 52.4585C28.069 52.4585 36.9162 51.1228 50.839 41.967C51.5045 43.2194 52.2534 44.3881 53.0577 45.5014C23.0213 65.0094 1.88779 56.939 0.417969 56.3269C26.3772 68.4603 49.8127 58.5532 60.5736 52.6255C62.7092 54.0171 65.0389 55.1302 67.5072 55.9094C61.2393 60.5291 45.3752 62.6997 45.3752 62.6997C51.8373 64.0355 77.4088 59.2767 82.0117 56.5772C82.0117 56.5772 81.9851 56.5772 81.9573 56.5772C82.0117 56.5772 82.0952 56.5772 82.1509 56.5495C81.3741 56.4939 80.5972 56.3547 79.8216 56.2156L79.8494 56.2434Z" fill="url(#paint3_linear_157_5858)"/>
</g>
<defs>
<linearGradient id="paint0_linear_157_5858" x1="-24.4881" y1="52.04" x2="79.7453" y2="-19.9828" gradientUnits="userSpaceOnUse">
<stop stop-color="#11A343"/>
<stop offset="1" stop-color="#A8E754"/>
</linearGradient>
<linearGradient id="paint1_linear_157_5858" x1="-9.26166" y1="72.946" x2="94.5661" y2="1.0669" gradientUnits="userSpaceOnUse">
<stop stop-color="#11A343"/>
<stop offset="1" stop-color="#A8E754"/>
</linearGradient>
<linearGradient id="paint2_linear_157_5858" x1="-9.26449" y1="72.9463" x2="94.5632" y2="1.06724" gradientUnits="userSpaceOnUse">
<stop stop-color="#11A343"/>
<stop offset="1" stop-color="#A8E754"/>
</linearGradient>
<linearGradient id="paint3_linear_157_5858" x1="-9.26324" y1="72.9472" x2="94.5645" y2="1.06813" gradientUnits="userSpaceOnUse">
<stop stop-color="#11A343"/>
<stop offset="1" stop-color="#A8E754"/>
</linearGradient>
<clipPath id="clip0_157_5858">
<rect width="312.687" height="62.9306" fill="white"/>
</clipPath>
</defs>
</svg>
