<svg width="8" height="118" viewBox="0 0 8 118" fill="none" xmlns="http://www.w3.org/2000/svg">
<g clip-path="url(#clip0_157_5967)">
<path d="M8 109.664V118H0V0H8V6.73471C7.88828 6.73471 7.79909 6.71277 7.70972 6.71277C4.84977 6.71277 2.52594 8.99424 2.52594 11.8022C2.52594 14.6102 4.84977 16.8916 7.70972 16.8916C7.82143 16.8916 8 16.8697 8 16.8697V25.2935C7.88828 25.2935 7.79909 25.2716 7.70972 25.2716C4.84977 25.2716 2.52594 27.5531 2.52594 30.361C2.52594 33.169 4.84977 35.4505 7.70972 35.4505C7.82143 35.4505 8 35.4285 8 35.4285V43.8524C7.88828 43.8524 7.79909 43.8304 7.70972 43.8304C4.84977 43.8304 2.52594 46.1119 2.52594 48.9199C2.52594 51.7278 4.84977 54.0093 7.70972 54.0093C7.82143 54.0093 8 53.9874 8 53.9874V62.4112C7.88828 62.4112 7.79909 62.3893 7.70972 62.3893C4.84977 62.3893 2.52594 64.6708 2.52594 67.4787C2.52594 70.2867 4.84977 72.5681 7.70972 72.5681C7.82143 72.5681 8 72.5462 8 72.5462V80.9701C7.88828 80.9701 7.79909 80.9481 7.70972 80.9481C4.84977 80.9481 2.52594 83.2296 2.52594 86.0376C2.52594 88.8455 4.84977 91.127 7.70972 91.127C7.82143 91.127 8 91.105 8 91.105V99.5289C7.88828 99.5289 7.79909 99.507 7.70972 99.507C4.84977 99.507 2.52594 101.788 2.52594 104.596C2.52594 107.404 4.84977 109.686 7.70972 109.686C7.82143 109.686 8 109.664 8 109.664Z" fill="url(#paint0_linear_157_5967)"/>
</g>
<defs>
<linearGradient id="paint0_linear_157_5967" x1="-1120.18" y1="59" x2="276.36" y2="59" gradientUnits="userSpaceOnUse">
<stop stop-color="#F2D598"/>
<stop offset="0.5" stop-color="#FFFEFB"/>
<stop offset="1" stop-color="#F2D598"/>
</linearGradient>
<clipPath id="clip0_157_5967">
<rect width="8" height="118" fill="white"/>
</clipPath>
</defs>
</svg>
