<svg width="8" height="118" viewBox="0 0 8 118" fill="none" xmlns="http://www.w3.org/2000/svg">
<g clip-path="url(#clip0_157_5966)">
<path d="M0 109.664C0.111717 109.664 0.290466 109.686 0.290466 109.686V109.817C3.15041 109.817 5.47411 107.536 5.47411 104.728C5.47411 101.92 3.15041 99.6386 0.290466 99.6386C0.178749 99.6386 0 99.6605 0 99.6605V91.2367C0.111717 91.2367 0.201093 91.2586 0.290466 91.2586C3.15041 91.2586 5.47411 88.9771 5.47411 86.1692C5.47411 83.3612 3.15041 81.0798 0.290466 81.0798C0.178749 81.0798 0 81.1017 0 81.1017V72.6778C0.111717 72.6778 0.201093 72.6998 0.290466 72.6998C3.15041 72.6998 5.47411 70.4183 5.47411 67.6103C5.47411 64.8024 3.15041 62.5209 0.290466 62.5209C0.178749 62.5209 0 62.5429 0 62.5429V54.119C0.111717 54.119 0.201093 54.1409 0.290466 54.1409C3.15041 54.1409 5.47411 51.8595 5.47411 49.0515C5.47411 46.2435 3.15041 43.9621 0.290466 43.9621C0.178749 43.9621 0 43.984 0 43.984V35.5601C0.111717 35.5601 0.201093 35.5821 0.290466 35.5821C3.15041 35.5821 5.47411 33.3006 5.47411 30.4927C5.47411 27.6847 3.15041 25.4032 0.290466 25.4032C0.178749 25.4032 0 25.4252 0 25.4252V17.0013C0.111717 17.0013 0.201093 17.0232 0.290466 17.0232C3.12807 17.0232 5.47411 14.7637 5.47411 11.9558C5.47411 9.1478 3.15041 6.86633 0.290466 6.86633C0.178749 6.86633 0 6.88827 0 6.88827V0H8V118H0V109.664Z" fill="url(#paint0_linear_157_5966)"/>
</g>
<defs>
<linearGradient id="paint0_linear_157_5966" x1="-251.185" y1="59" x2="1145.36" y2="59" gradientUnits="userSpaceOnUse">
<stop stop-color="#F2D598"/>
<stop offset="0.5" stop-color="#FFFEFB"/>
<stop offset="1" stop-color="#F2D598"/>
</linearGradient>
<clipPath id="clip0_157_5966">
<rect width="8" height="118" fill="white"/>
</clipPath>
</defs>
</svg>
